<svg width="587.01" height="380.8" viewBox="0 0 587.01 380.8" xmlns="http://www.w3.org/2000/svg" xmlns:xlink="http://www.w3.org/1999/xlink" overflow="visible"><defs></defs><g><path d="M448.74 283.59 445.91 284.25C457.6 250.57 500.62 126.46 500.33 125.87 499.99 125.19 464.08 13.01 464.08 13.01 464.08 13.01 445.5-6.93 371.46 11.96 297.95 30.71 235.07 71.74 235.07 71.74 235.07 71.74 229.26 75.24 220.16 81.17L210.24 72.2C210.24 72.2 190.07 82.13 168.65 97.8 154.9 107.86 146.2 117.99 143.7 121.04 141.87 122.17 140.89 122.8 140.89 122.8L92.7 186.94 81.94 267.8 112.37 242.39 108.73 277.7C108.73 277.7 87.42 375.61 116.5 379.03 120.06 379.45 124.08 379.82 128.54 380.08L128.5 380.17C128.5 380.17 141.78 380.93 151.35 380.76 160.91 380.59 171.22 380 171.22 380L171.24 379.87C201.71 378 240.72 372.4 286.89 359.72 325.1 349.23 361.5 333.99 389.54 320.69L389.71 321.13C389.71 321.13 397.2 318.1 418.21 306.84 439.01 295.67 445.11 291.44 451.53 287.64 457.96 283.84 448.74 283.59 448.74 283.59" fill="#FFFFFF"/><path d="M151.95 362.6C112.87 361.47 82.71 349.23 67.98 325.07 43.37 284.71 67.94 221.33 124.94 160.09 126.94 146.01 133.78 133.05 143.54 120.94 41.52 182.18-17.48 261.03 4.62 318.25 19.18 355.97 66.15 376.98 129.89 380.29 138.21 374.37 145.56 368.48 151.95 362.6" fill="#005AA2"/><path d="M287.15 334.22C254.98 347.06 223.89 355.66 195.52 359.82 187.97 366.78 179.53 373.57 170.29 380.13 207.33 378.08 248.19 371 290.58 358.72 289.29 351.09 288.15 342.87 287.15 334.22" fill="#005AA2"/><path d="M391.1 279.25C384.59 283.59 377.94 287.84 371.13 292 357.54 300.28 343.92 307.81 330.33 314.68 329.08 327.25 327.54 338.37 325.78 347.45 332.19 345.19 338.63 342.84 345.07 340.35 361.95 333.83 378.22 326.78 393.81 319.28 392.62 306.48 391.72 293.01 391.1 279.25" fill="#005AA2"/><path d="M582.4 95.23C576.13 79 563.86 65.87 546.84 55.9 558.82 105.54 517.06 177.57 442.05 241.04 441.98 259.8 441.32 277.95 440.2 294.51 544.24 233.01 604.72 153.08 582.4 95.23" fill="#005AA2"/><path d="M320.64 48.29C347.79 41.6 374.12 37.08 398.97 34.72L398.97 33.63 428.85 15.76 428.85 32.88C477.45 31.62 518.66 39.41 546.83 55.91 545.26 49.42 542.79 43.32 539.34 37.66 510.17-10.18 420.61-11.47 320.63 28.32L320.63 48.29Z" fill="#BCD5EC"/><g><path d="M290.77 41.34C272.66 49.87 254.39 59.64 236.21 70.73 230.69 74.1 225.31 77.55 220 81.04L220.84 81.76C227.77 78.81 234.77 75.93 241.93 73.16 258.33 66.84 274.63 61.28 290.76 56.45L290.76 41.34Z" fill="#BCD5EC"/><path d="M154.19 230.61C129.61 204.09 121.99 180.88 124.95 160.08 67.95 221.33 43.38 284.71 67.99 325.06 82.72 349.22 112.88 361.46 151.96 362.59 200.64 317.83 194.57 274.19 154.19 230.61" fill="#88B4DC"/><path d="M546.84 55.9C518.66 39.4 477.45 31.61 428.86 32.86L428.86 68.11 398.98 85.98 398.98 34.71C374.13 37.07 347.8 41.59 320.65 48.29L320.65 68.12 290.77 85.99 290.77 56.45C274.65 61.28 258.34 66.83 241.94 73.16 234.78 75.92 227.78 78.81 220.85 81.76L230.43 89.98C181.3 117.99 152.05 152.83 209.32 212.41 256.64 261.64 244.66 314.55 195.51 359.83 223.88 355.67 254.97 347.08 287.14 334.23 279.09 264.62 280.2 166.76 290.76 119.42L320.64 101.56C335.64 161.3 336.31 254.53 330.32 314.69 343.9 307.83 357.54 300.29 371.12 292.01 377.93 287.85 384.58 283.6 391.09 279.26 388.41 219.79 390.98 155.19 398.97 119.42L428.85 101.56C438.52 140.08 442.22 192.53 442.03 241.06 517.06 177.57 558.82 105.54 546.84 55.9" fill="#88B4DC"/></g></g></svg>